<?xml version="1.0" encoding="utf-8"?>
<!-- Generator: Adobe Illustrator 15.1.0, SVG Export Plug-In . SVG Version: 6.00 Build 0)  -->
<!DOCTYPE svg PUBLIC "-//W3C//DTD SVG 1.1//EN" "http://www.w3.org/Graphics/SVG/1.1/DTD/svg11.dtd">
<svg version="1.1" id="Layer_1" xmlns="http://www.w3.org/2000/svg" xmlns:xlink="http://www.w3.org/1999/xlink" x="0px" y="0px"
	 width="20px" height="12px" viewBox="0 0 20 12" enable-background="new 0 0 20 12" xml:space="preserve">
<rect fill="#0052B4" width="20" height="12"/>
<path fill="#F5F5F5" d="M20,0h-1.889l-6.387,3.833V0h-3.45v3.833L1.887,0H0v1.133L5.481,4.42H0v3.16h5.481L0,10.867V12h1.888
	l6.387-3.833V12h3.45V8.167L18.111,12H20v-1.133L14.52,7.58H20V4.42h-5.48L20,1.133V0z"/>
<polygon fill="#D80027" points="19.5,12 10,6.5 0.375,12 0,12 0,11.5 9.5,6 0,0.5 0,0 0.5,0 10,5.5 19.5,0 20,0 20,0.5 10.5,6 
	20,11.5 20,12 "/>
<polygon fill="#F5F5F5" points="20,4.25 11.75,4.25 11.75,0 8.25,0 8.25,4.25 0,4.25 0,7.75 8.25,7.75 8.25,12 11.75,12 11.75,7.75 
	20,7.75 "/>
<polygon fill="#D80027" points="20,5 11,5 11,0 9,0 9,5 0,5 0,7 9,7 9,12 11,12 11,7 20,7 "/>
</svg>
